M48
;DRILL file {Pcbnew (2013-jul-07)-stable} date Fri 04 Mar 2016 16:07:38 GMT
;FORMAT={-:-/ absolute / inch / decimal}
FMAT,2
INCH,TZ
T1C0.032
T2C0.039
T3C0.043
T4C0.051
%
G90
G05
M72
T1
X8.8Y-6.825
X10.025Y-6.825
T2
X8.225Y-6.125
X8.225Y-6.225
X8.225Y-6.325
X8.225Y-6.425
X8.225Y-6.525
X8.225Y-6.625
X8.225Y-6.725
X8.225Y-6.825
X8.225Y-6.925
X8.35Y-5.975
X8.35Y-6.925
X8.5Y-6.025
X8.5Y-6.125
X8.5Y-6.225
X8.5Y-6.325
X8.5Y-6.425
X8.5Y-6.525
X8.5Y-6.625
X8.5Y-6.725
X8.5Y-6.825
X8.5Y-6.925
X8.7Y-5.8
X8.8Y-6.025
X8.8Y-6.125
X8.8Y-6.225
X8.8Y-6.325
X8.8Y-6.425
X8.8Y-6.525
X8.8Y-6.625
X8.8Y-6.725
X8.8Y-6.925
X8.85Y-5.625
X8.85Y-5.875
X8.95Y-5.875
X9.225Y-5.525
X9.225Y-5.625
X9.225Y-5.725
X9.225Y-5.825
X9.225Y-5.925
X9.225Y-6.025
X9.225Y-6.125
X9.225Y-6.225
X9.225Y-6.325
X9.225Y-6.425
X9.225Y-6.525
X9.225Y-6.625
X9.225Y-6.725
X9.225Y-6.825
X9.225Y-6.925
X9.225Y-7.025
X9.225Y-7.225
X9.225Y-7.325
X9.225Y-7.425
X9.225Y-7.625
X9.225Y-7.725
X9.325Y-5.525
X9.325Y-5.625
X9.325Y-5.725
X9.325Y-5.825
X9.325Y-5.925
X9.325Y-6.025
X9.325Y-6.125
X9.325Y-6.225
X9.325Y-6.325
X9.325Y-6.625
X9.325Y-6.725
X9.325Y-6.825
X9.325Y-6.925
X9.325Y-7.225
X9.325Y-7.325
X9.325Y-7.425
X9.325Y-7.525
X9.325Y-7.625
X9.325Y-7.725
X9.475Y-6.025
X9.475Y-6.625
X9.6Y-6.4
X9.6Y-6.975
X9.725Y-6.525
X9.725Y-6.625
X9.725Y-6.725
X9.725Y-6.825
X9.725Y-6.925
X9.725Y-7.025
X9.725Y-7.125
X9.775Y-6.025
X10.025Y-6.525
X10.025Y-6.625
X10.025Y-6.725
X10.025Y-6.925
X10.025Y-7.025
X10.025Y-7.125
X10.15Y-6.25
X10.15Y-6.525
X10.15Y-6.625
X10.15Y-7.025
X10.15Y-7.5
X10.25Y-6.825
X10.25Y-7.6
X10.325Y-7.025
X10.325Y-7.35
X10.35Y-6.025
X10.4Y-6.25
X10.625Y-5.825
X10.625Y-5.925
X10.625Y-6.025
X10.625Y-6.55
X10.625Y-6.65
X10.625Y-6.75
X10.625Y-7.25
X10.625Y-7.35
X10.625Y-7.45
X10.725Y-5.825
X10.725Y-5.925
X10.725Y-6.025
X10.725Y-6.55
X10.725Y-6.65
X10.725Y-6.75
X10.725Y-7.25
X10.725Y-7.35
X10.725Y-7.45
X11.125Y-5.525
X11.125Y-5.625
X11.125Y-5.725
X11.125Y-5.825
X11.125Y-5.925
X11.125Y-6.025
X11.125Y-6.125
X11.125Y-6.225
X11.125Y-6.325
X11.125Y-6.425
X11.125Y-6.525
X11.125Y-6.625
X11.125Y-6.725
X11.125Y-6.825
X11.125Y-6.925
X11.125Y-7.025
X11.125Y-7.125
X11.125Y-7.225
X11.125Y-7.325
X11.125Y-7.425
X11.125Y-7.525
X11.125Y-7.625
X11.125Y-7.725
X11.225Y-5.525
X11.225Y-5.625
X11.225Y-5.725
X11.225Y-5.825
X11.225Y-5.925
X11.225Y-6.025
X11.225Y-6.125
X11.225Y-6.225
X11.225Y-6.325
X11.225Y-6.425
X11.225Y-6.525
X11.225Y-6.625
X11.225Y-6.725
X11.225Y-6.825
X11.225Y-6.925
X11.225Y-7.025
X11.225Y-7.125
X11.225Y-7.225
X11.225Y-7.325
X11.225Y-7.425
X11.225Y-7.525
X11.225Y-7.625
X11.225Y-7.725
T3
X9.325Y-6.425
X9.325Y-6.525
T4
X7.8Y-5.786
X7.8Y-5.9829
X7.8Y-6.1797
X7.8Y-6.3766
X7.8Y-6.5734
X7.8Y-6.7703
X7.8Y-6.9671
X7.8Y-7.164
X8.3266Y-5.625
X8.5234Y-5.625
T0
M30
