G04 (created by PCBNEW (2013-jul-07)-stable) date Fri 04 Mar 2016 16:08:36 GMT*
%MOIN*%
G04 Gerber Fmt 3.4, Leading zero omitted, Abs format*
%FSLAX34Y34*%
G01*
G70*
G90*
G04 APERTURE LIST*
%ADD10C,0.00590551*%
%ADD11R,0.0984252X0.0787402*%
%ADD12O,0.0984252X0.0787402*%
%ADD13R,0.0787402X0.0787402*%
%ADD14C,0.0787402*%
%ADD15C,0.0984252*%
%ADD16C,0.0708661*%
%ADD17C,0.0393701*%
G04 APERTURE END LIST*
G54D10*
G54D11*
X107348Y-60250D03*
G54D12*
X106151Y-60250D03*
X107348Y-59250D03*
X106151Y-59250D03*
X107348Y-58250D03*
X106151Y-58250D03*
G54D11*
X107348Y-67500D03*
G54D12*
X106151Y-67500D03*
X107348Y-66500D03*
X106151Y-66500D03*
X107348Y-65500D03*
X106151Y-65500D03*
G54D11*
X107348Y-74500D03*
G54D12*
X106151Y-74500D03*
X107348Y-73500D03*
X106151Y-73500D03*
X107348Y-72500D03*
X106151Y-72500D03*
G54D13*
X82250Y-69250D03*
G54D14*
X82250Y-68250D03*
X82250Y-67250D03*
X82250Y-66250D03*
X82250Y-65250D03*
X82250Y-64250D03*
X82250Y-63250D03*
X82250Y-62250D03*
X82250Y-61250D03*
G54D15*
X78000Y-71639D03*
X78000Y-69671D03*
X78000Y-67702D03*
X78000Y-65734D03*
X78000Y-63765D03*
X78000Y-61797D03*
X78000Y-57860D03*
X78000Y-59828D03*
G54D12*
X85000Y-60250D03*
X85000Y-61250D03*
X85000Y-62250D03*
X85000Y-63250D03*
X85000Y-64250D03*
X85000Y-65250D03*
X85000Y-66250D03*
X85000Y-67250D03*
X85000Y-68250D03*
X88000Y-69250D03*
X88000Y-68250D03*
X88000Y-67250D03*
X88000Y-66250D03*
X88000Y-65250D03*
X88000Y-64250D03*
X88000Y-63250D03*
X88000Y-62250D03*
X88000Y-60250D03*
G54D11*
X97250Y-65250D03*
G54D12*
X97250Y-66250D03*
X97250Y-67250D03*
X97250Y-68250D03*
X97250Y-69250D03*
X97250Y-70250D03*
X100250Y-71250D03*
X100250Y-70250D03*
X100250Y-69250D03*
X100250Y-68250D03*
X100250Y-67250D03*
X100250Y-66250D03*
X100250Y-65250D03*
G54D14*
X88500Y-58750D03*
X101500Y-65250D03*
X93250Y-55250D03*
X92250Y-56250D03*
X93250Y-56250D03*
X92250Y-57250D03*
X93250Y-57250D03*
X92250Y-58250D03*
X93250Y-58250D03*
X92250Y-59250D03*
X93250Y-59250D03*
X92250Y-60250D03*
X93250Y-60250D03*
X92250Y-61250D03*
X93250Y-61250D03*
X92250Y-62250D03*
X93250Y-62250D03*
X92250Y-63250D03*
X93250Y-63250D03*
X92250Y-64250D03*
G54D16*
X93250Y-64250D03*
G54D14*
X92250Y-65250D03*
G54D16*
X93250Y-65250D03*
G54D14*
X92250Y-66250D03*
X93250Y-66250D03*
X92250Y-67250D03*
X93250Y-67250D03*
X92250Y-68250D03*
X93250Y-68250D03*
X92250Y-69250D03*
X93250Y-69250D03*
X92250Y-70250D03*
X92250Y-72250D03*
X93250Y-72250D03*
X92250Y-73250D03*
X93250Y-73250D03*
X92250Y-74250D03*
X93250Y-74250D03*
X93250Y-75250D03*
X92250Y-76250D03*
X93250Y-76250D03*
X92250Y-77250D03*
X93250Y-77250D03*
G54D13*
X111250Y-55250D03*
G54D14*
X112250Y-55250D03*
X111250Y-56250D03*
X112250Y-56250D03*
X111250Y-57250D03*
X112250Y-57250D03*
X111250Y-58250D03*
X112250Y-58250D03*
X111250Y-59250D03*
X112250Y-59250D03*
X111250Y-60250D03*
X112250Y-60250D03*
X111250Y-61250D03*
X112250Y-61250D03*
X111250Y-62250D03*
X112250Y-62250D03*
X111250Y-63250D03*
X112250Y-63250D03*
X111250Y-64250D03*
X112250Y-64250D03*
X111250Y-65250D03*
X112250Y-65250D03*
X111250Y-66250D03*
X112250Y-66250D03*
X111250Y-67250D03*
X112250Y-67250D03*
X111250Y-68250D03*
X112250Y-68250D03*
X111250Y-69250D03*
X112250Y-69250D03*
X111250Y-70250D03*
X112250Y-70250D03*
X111250Y-71250D03*
X112250Y-71250D03*
X111250Y-72250D03*
X112250Y-72250D03*
X111250Y-73250D03*
X112250Y-73250D03*
X111250Y-74250D03*
X112250Y-74250D03*
X111250Y-75250D03*
X112250Y-75250D03*
X111250Y-76250D03*
X112250Y-76250D03*
X111250Y-77250D03*
X112250Y-77250D03*
G54D15*
X85234Y-56250D03*
G54D14*
X88500Y-56250D03*
X87000Y-58000D03*
X83500Y-59750D03*
X83500Y-69250D03*
X101500Y-62500D03*
X104000Y-62500D03*
X96000Y-64000D03*
X96000Y-69750D03*
X103500Y-60250D03*
X97750Y-60250D03*
X94750Y-60250D03*
X94750Y-66250D03*
X102500Y-76000D03*
X102500Y-68250D03*
X103250Y-70250D03*
X103250Y-73500D03*
X101500Y-75000D03*
X101500Y-70250D03*
G54D17*
X88500Y-58750D02*
X87750Y-58750D01*
X88500Y-56250D02*
X92250Y-56250D01*
X87750Y-58750D02*
X87000Y-58000D01*
X88000Y-60250D02*
X88000Y-59250D01*
X88000Y-59250D02*
X88500Y-58750D01*
X85000Y-60250D02*
X88000Y-60250D01*
X85234Y-56250D02*
X86750Y-56250D01*
X87750Y-57250D02*
X92250Y-57250D01*
X86750Y-56250D02*
X87750Y-57250D01*
X82250Y-69250D02*
X83500Y-69250D01*
X85234Y-58015D02*
X85234Y-56250D01*
X83500Y-59750D02*
X85234Y-58015D01*
X107250Y-73500D02*
X107750Y-73500D01*
X108500Y-68750D02*
X107250Y-67500D01*
X108500Y-72750D02*
X108500Y-68750D01*
X107750Y-73500D02*
X108500Y-72750D01*
X107250Y-66500D02*
X108000Y-66500D01*
X108250Y-66250D02*
X108250Y-62500D01*
X108000Y-66500D02*
X108250Y-66250D01*
X107250Y-67500D02*
X107250Y-66500D01*
X108250Y-62500D02*
X108250Y-61250D01*
X108250Y-61250D02*
X107250Y-60250D01*
X107250Y-60250D02*
X107250Y-59250D01*
X101500Y-65250D02*
X101500Y-62500D01*
X104000Y-62500D02*
X108250Y-62500D01*
X100250Y-65250D02*
X100250Y-61250D01*
X96250Y-57250D02*
X94250Y-57250D01*
X94250Y-57250D02*
X93250Y-57250D01*
X100250Y-61250D02*
X96250Y-57250D01*
X92250Y-57250D02*
X93250Y-57250D01*
X100250Y-65250D02*
X101500Y-65250D01*
X107250Y-73500D02*
X107250Y-74500D01*
X82250Y-61250D02*
X82250Y-59250D01*
X80860Y-57860D02*
X78000Y-57860D01*
X82250Y-59250D02*
X80860Y-57860D01*
X82250Y-61250D02*
X85000Y-61250D01*
X88000Y-62250D02*
X88250Y-62250D01*
X90250Y-60250D02*
X92250Y-60250D01*
X88250Y-62250D02*
X90250Y-60250D01*
X82250Y-62250D02*
X81750Y-62250D01*
X79328Y-59828D02*
X78000Y-59828D01*
X81750Y-62250D02*
X79328Y-59828D01*
X82250Y-62250D02*
X85000Y-62250D01*
X88000Y-63250D02*
X88500Y-63250D01*
X90500Y-61250D02*
X92250Y-61250D01*
X88500Y-63250D02*
X90500Y-61250D01*
X82250Y-63250D02*
X81250Y-63250D01*
X79797Y-61797D02*
X78000Y-61797D01*
X81250Y-63250D02*
X79797Y-61797D01*
X82250Y-63250D02*
X85000Y-63250D01*
X88000Y-64250D02*
X88750Y-64250D01*
X90750Y-62250D02*
X92250Y-62250D01*
X88750Y-64250D02*
X90750Y-62250D01*
X82250Y-68250D02*
X81500Y-68250D01*
X78110Y-71639D02*
X78000Y-71639D01*
X81500Y-68250D02*
X78110Y-71639D01*
X82250Y-68250D02*
X85000Y-68250D01*
X93250Y-75250D02*
X91750Y-75250D01*
X88000Y-71500D02*
X88000Y-69250D01*
X91750Y-75250D02*
X88000Y-71500D01*
X78000Y-69671D02*
X79078Y-69671D01*
X81500Y-67250D02*
X82250Y-67250D01*
X79078Y-69671D02*
X81500Y-67250D01*
X82250Y-67250D02*
X85000Y-67250D01*
X88000Y-68250D02*
X92250Y-68250D01*
X106250Y-59250D02*
X102500Y-59250D01*
X102250Y-67250D02*
X100250Y-67250D01*
X102500Y-67000D02*
X102250Y-67250D01*
X102500Y-59250D02*
X102500Y-67000D01*
X93250Y-69250D02*
X95500Y-69250D01*
X99250Y-66250D02*
X100250Y-66250D01*
X98750Y-65750D02*
X99250Y-66250D01*
X98750Y-64500D02*
X98750Y-65750D01*
X98250Y-64000D02*
X98750Y-64500D01*
X96000Y-64000D02*
X98250Y-64000D01*
X95500Y-69250D02*
X96000Y-69750D01*
X82250Y-64250D02*
X78484Y-64250D01*
X78484Y-64250D02*
X78000Y-63765D01*
X82250Y-64250D02*
X85000Y-64250D01*
X88000Y-65250D02*
X89000Y-65250D01*
X91000Y-63250D02*
X92250Y-63250D01*
X89000Y-65250D02*
X91000Y-63250D01*
X97250Y-66250D02*
X94750Y-66250D01*
X103500Y-60250D02*
X106250Y-60250D01*
X94750Y-60250D02*
X97750Y-60250D01*
X93250Y-66250D02*
X93500Y-66250D01*
X94500Y-65250D02*
X97250Y-65250D01*
X93500Y-66250D02*
X94500Y-65250D01*
X100250Y-69250D02*
X103750Y-69250D01*
X104500Y-66500D02*
X106250Y-66500D01*
X104000Y-67000D02*
X104500Y-66500D01*
X104000Y-69000D02*
X104000Y-67000D01*
X103750Y-69250D02*
X104000Y-69000D01*
X100250Y-68250D02*
X101750Y-68250D01*
X91750Y-69250D02*
X91250Y-69750D01*
X91250Y-69750D02*
X91250Y-70500D01*
X91250Y-70500D02*
X92000Y-71250D01*
X92000Y-71250D02*
X94250Y-71250D01*
X94250Y-71250D02*
X94750Y-71750D01*
X94750Y-71750D02*
X94750Y-73000D01*
X94750Y-73000D02*
X97750Y-76000D01*
X97750Y-76000D02*
X102500Y-76000D01*
X102500Y-68250D02*
X101750Y-68250D01*
X91750Y-69250D02*
X92250Y-69250D01*
X82250Y-65250D02*
X78484Y-65250D01*
X78484Y-65250D02*
X78000Y-65734D01*
X82250Y-65250D02*
X85000Y-65250D01*
X88000Y-66250D02*
X89250Y-66250D01*
X91250Y-64250D02*
X92250Y-64250D01*
X89250Y-66250D02*
X91250Y-64250D01*
X97250Y-68250D02*
X98000Y-68250D01*
X106250Y-69250D02*
X106250Y-67500D01*
X105250Y-70250D02*
X106250Y-69250D01*
X103250Y-70250D02*
X105250Y-70250D01*
X100500Y-73500D02*
X103250Y-73500D01*
X99000Y-72000D02*
X100500Y-73500D01*
X99000Y-69250D02*
X99000Y-72000D01*
X98000Y-68250D02*
X99000Y-69250D01*
X93250Y-67250D02*
X97250Y-67250D01*
X100250Y-71250D02*
X102500Y-71250D01*
X104750Y-73500D02*
X106250Y-73500D01*
X102500Y-71250D02*
X104750Y-73500D01*
X100250Y-70250D02*
X101500Y-70250D01*
X94500Y-70250D02*
X92250Y-70250D01*
X95500Y-71250D02*
X94500Y-70250D01*
X95500Y-72750D02*
X95500Y-71250D01*
X97750Y-75000D02*
X95500Y-72750D01*
X101500Y-75000D02*
X97750Y-75000D01*
X82250Y-66250D02*
X81500Y-66250D01*
X80047Y-67702D02*
X78000Y-67702D01*
X81500Y-66250D02*
X80047Y-67702D01*
X82250Y-66250D02*
X85000Y-66250D01*
X88000Y-67250D02*
X89500Y-67250D01*
X91500Y-65250D02*
X92250Y-65250D01*
X89500Y-67250D02*
X91500Y-65250D01*
X97250Y-70250D02*
X98250Y-70250D01*
X104000Y-74500D02*
X106250Y-74500D01*
X103750Y-74250D02*
X104000Y-74500D01*
X98250Y-74250D02*
X103750Y-74250D01*
X98250Y-70250D02*
X98250Y-74250D01*
X93250Y-68250D02*
X95750Y-68250D01*
X96750Y-69250D02*
X97250Y-69250D01*
X95750Y-68250D02*
X96750Y-69250D01*
M02*
