G04 (created by PCBNEW (22-Jun-2014 BZR 4027)-stable) date Thu 19 Nov 2015 14:43:58 GMT*
%MOIN*%
G04 Gerber Fmt 3.4, Leading zero omitted, Abs format*
%FSLAX34Y34*%
G01*
G70*
G90*
G04 APERTURE LIST*
%ADD10C,0.00590551*%
%ADD11R,0.0787402X0.0787402*%
%ADD12C,0.0787402*%
%ADD13O,0.0787402X0.0984252*%
%ADD14C,0.0984252*%
%ADD15R,0.0787402X0.0984252*%
%ADD16O,0.0984252X0.0787402*%
%ADD17R,0.0984252X0.0787402*%
%ADD18C,0.0708661*%
%ADD19C,0.0393701*%
G04 APERTURE END LIST*
G54D10*
G54D11*
X110500Y-33000D03*
G54D12*
X109500Y-33000D03*
X108500Y-33000D03*
X107500Y-33000D03*
X106500Y-33000D03*
X105500Y-33000D03*
X104500Y-33000D03*
X103500Y-33000D03*
X102500Y-33000D03*
X111500Y-34500D03*
X111500Y-40500D03*
G54D13*
X111500Y-38500D03*
X110500Y-38500D03*
X109500Y-38500D03*
X108500Y-38500D03*
X107500Y-38500D03*
X106500Y-38500D03*
X105500Y-38500D03*
X104500Y-38500D03*
X103500Y-38500D03*
X102500Y-35500D03*
X103500Y-35500D03*
X104500Y-35500D03*
X105500Y-35500D03*
X106500Y-35500D03*
X107500Y-35500D03*
X108500Y-35500D03*
X109500Y-35500D03*
X111500Y-35500D03*
G54D14*
X81015Y-29500D03*
G54D12*
X109900Y-30500D03*
X108850Y-30500D03*
X107750Y-30500D03*
X106650Y-30500D03*
X105550Y-30500D03*
X104500Y-30500D03*
X103400Y-30500D03*
X102300Y-30500D03*
X101200Y-30500D03*
X100150Y-30500D03*
X99050Y-30500D03*
X97950Y-30500D03*
X110380Y-29500D03*
X109380Y-29500D03*
X108280Y-29500D03*
X107200Y-29500D03*
X106120Y-29500D03*
X105020Y-29500D03*
X103940Y-29500D03*
X102860Y-29500D03*
X101740Y-29500D03*
X100680Y-29500D03*
X99600Y-29500D03*
X98500Y-29500D03*
G54D15*
X88000Y-35401D03*
G54D13*
X88000Y-36598D03*
X89000Y-35401D03*
X89000Y-36598D03*
X90000Y-35401D03*
X90000Y-36598D03*
G54D16*
X73401Y-32000D03*
X74598Y-32000D03*
X74598Y-33000D03*
X73401Y-33000D03*
G54D17*
X73401Y-36000D03*
G54D16*
X74598Y-36000D03*
X73401Y-35000D03*
X74598Y-35000D03*
X73401Y-34000D03*
X74598Y-34000D03*
X73401Y-41000D03*
X74598Y-41000D03*
X74598Y-42000D03*
X73401Y-42000D03*
G54D17*
X73401Y-45000D03*
G54D16*
X74598Y-45000D03*
X73401Y-44000D03*
X74598Y-44000D03*
X73401Y-43000D03*
X74598Y-43000D03*
X73401Y-50000D03*
X74598Y-50000D03*
X74598Y-51000D03*
X73401Y-51000D03*
G54D17*
X73401Y-54000D03*
G54D16*
X74598Y-54000D03*
X73401Y-53000D03*
X74598Y-53000D03*
X73401Y-52000D03*
X74598Y-52000D03*
G54D17*
X84500Y-42500D03*
G54D16*
X84500Y-43500D03*
X84500Y-44500D03*
X84500Y-45500D03*
X84500Y-46500D03*
X84500Y-47500D03*
X81500Y-48500D03*
X81500Y-47500D03*
X81500Y-46500D03*
X81500Y-45500D03*
X81500Y-44500D03*
X81500Y-43500D03*
X81500Y-42500D03*
G54D17*
X84500Y-51500D03*
G54D16*
X84500Y-52500D03*
X84500Y-53500D03*
X84500Y-54500D03*
X84500Y-55500D03*
X84500Y-56500D03*
X81500Y-57500D03*
X81500Y-56500D03*
X81500Y-55500D03*
X81500Y-54500D03*
X81500Y-53500D03*
X81500Y-52500D03*
X81500Y-51500D03*
G54D12*
X114750Y-42000D03*
X114750Y-43000D03*
X113750Y-42000D03*
X113750Y-43000D03*
X112750Y-42000D03*
X112750Y-43000D03*
X111750Y-42000D03*
X111750Y-43000D03*
X110750Y-42000D03*
X110750Y-43000D03*
X109750Y-42000D03*
X109750Y-43000D03*
X108750Y-42000D03*
X108750Y-43000D03*
X107750Y-42000D03*
X107750Y-43000D03*
X106750Y-42000D03*
G54D18*
X106750Y-43000D03*
G54D12*
X105750Y-42000D03*
G54D18*
X105750Y-43000D03*
G54D12*
X104750Y-42000D03*
X104750Y-43000D03*
X103750Y-42000D03*
X103750Y-43000D03*
X102750Y-42000D03*
X102750Y-43000D03*
X101750Y-42000D03*
X101750Y-43000D03*
X100750Y-42000D03*
X100750Y-43000D03*
X99750Y-42000D03*
X99750Y-43000D03*
X98750Y-42000D03*
X98750Y-43000D03*
X97750Y-42000D03*
X97750Y-43000D03*
X96750Y-42000D03*
X96750Y-43000D03*
X95750Y-42000D03*
X95750Y-43000D03*
G54D11*
X115750Y-61000D03*
G54D12*
X115750Y-62000D03*
X114750Y-61000D03*
X114750Y-62000D03*
X113750Y-61000D03*
X113750Y-62000D03*
X112750Y-61000D03*
X112750Y-62000D03*
X111750Y-61000D03*
X111750Y-62000D03*
X110750Y-61000D03*
X110750Y-62000D03*
X109750Y-61000D03*
X109750Y-62000D03*
X108750Y-61000D03*
X108750Y-62000D03*
X107750Y-61000D03*
X107750Y-62000D03*
X106750Y-61000D03*
X106750Y-62000D03*
X105750Y-61000D03*
X105750Y-62000D03*
X104750Y-61000D03*
X104750Y-62000D03*
X103750Y-61000D03*
X103750Y-62000D03*
X102750Y-61000D03*
X102750Y-62000D03*
X101750Y-61000D03*
X101750Y-62000D03*
X100750Y-61000D03*
X100750Y-62000D03*
X99750Y-61000D03*
X99750Y-62000D03*
X98750Y-61000D03*
X98750Y-62000D03*
X97750Y-61000D03*
X97750Y-62000D03*
X96750Y-61000D03*
X96750Y-62000D03*
X95750Y-61000D03*
X95750Y-62000D03*
X94750Y-61000D03*
X94750Y-62000D03*
X93750Y-61000D03*
X93750Y-62000D03*
X80500Y-42500D03*
X80500Y-51500D03*
X81500Y-37750D03*
X85000Y-30500D03*
X85000Y-36500D03*
X111500Y-33000D03*
X113500Y-39500D03*
X113500Y-44000D03*
X73500Y-55000D03*
X79500Y-51500D03*
X109500Y-34500D03*
X94500Y-34500D03*
X79500Y-35000D03*
X80000Y-44500D03*
X100750Y-40250D03*
X80000Y-43500D03*
X87500Y-41500D03*
X87500Y-47500D03*
X87500Y-50750D03*
X87500Y-52500D03*
X100000Y-33250D03*
X100000Y-31500D03*
X77000Y-33500D03*
X77000Y-30750D03*
X76500Y-44000D03*
X80000Y-46500D03*
X101500Y-44250D03*
X80500Y-40250D03*
X76500Y-45000D03*
X75000Y-47500D03*
X71000Y-42000D03*
X92000Y-27500D03*
X76500Y-42000D03*
X92000Y-28500D03*
X76500Y-53000D03*
X78500Y-48500D03*
X104000Y-44500D03*
X79500Y-47500D03*
X86000Y-50750D03*
X76500Y-54000D03*
X71500Y-51000D03*
X116000Y-26500D03*
X76500Y-51000D03*
X117000Y-26000D03*
G54D19*
X114750Y-42000D02*
X114750Y-38750D01*
X114750Y-38750D02*
X111500Y-35500D01*
X111500Y-35500D02*
X111500Y-34500D01*
X81500Y-37750D02*
X74250Y-37750D01*
X73500Y-37000D02*
X73500Y-36000D01*
X74250Y-37750D02*
X73500Y-37000D01*
X81500Y-42500D02*
X81500Y-37750D01*
X81015Y-29500D02*
X81015Y-29515D01*
X82000Y-30500D02*
X85000Y-30500D01*
X81015Y-29515D02*
X82000Y-30500D01*
X98500Y-29500D02*
X97500Y-29500D01*
X93500Y-30500D02*
X85000Y-30500D01*
X94000Y-31000D02*
X93500Y-30500D01*
X96000Y-31000D02*
X94000Y-31000D01*
X97500Y-29500D02*
X96000Y-31000D01*
X88000Y-36500D02*
X85000Y-36500D01*
X113750Y-42000D02*
X113500Y-41750D01*
X111500Y-33000D02*
X110500Y-33000D01*
X113500Y-41750D02*
X113500Y-39500D01*
X113750Y-43000D02*
X113750Y-42000D01*
X113750Y-43750D02*
X113750Y-43000D01*
X113500Y-44000D02*
X113750Y-43750D01*
X73500Y-52000D02*
X73500Y-53000D01*
X73500Y-53000D02*
X73500Y-54000D01*
X73500Y-54000D02*
X73500Y-55000D01*
X80500Y-51500D02*
X79500Y-51500D01*
X79500Y-51500D02*
X78000Y-51500D01*
X73500Y-47000D02*
X73500Y-45000D01*
X78000Y-51500D02*
X73500Y-47000D01*
X73500Y-43000D02*
X73500Y-44000D01*
X73500Y-44000D02*
X73500Y-45000D01*
X81500Y-51500D02*
X80500Y-51500D01*
X81500Y-42500D02*
X80500Y-42500D01*
X73500Y-35000D02*
X73500Y-36000D01*
X73500Y-34000D02*
X73500Y-35000D01*
X89000Y-36500D02*
X89000Y-37500D01*
X91500Y-37500D02*
X94500Y-34500D01*
X89000Y-37500D02*
X91500Y-37500D01*
X109500Y-34500D02*
X109500Y-33000D01*
X109500Y-35500D02*
X109500Y-34500D01*
X109900Y-31600D02*
X109900Y-30500D01*
X109500Y-33000D02*
X109500Y-32000D01*
X109500Y-32000D02*
X109900Y-31600D01*
X110500Y-38500D02*
X110500Y-40000D01*
X110750Y-40250D02*
X110750Y-42000D01*
X110500Y-40000D02*
X110750Y-40250D01*
X108500Y-33000D02*
X108500Y-35500D01*
X108850Y-31650D02*
X108850Y-30500D01*
X108500Y-32000D02*
X108850Y-31650D01*
X108500Y-33000D02*
X108500Y-32000D01*
X109500Y-38500D02*
X109500Y-40000D01*
X109750Y-40250D02*
X109750Y-42000D01*
X109500Y-40000D02*
X109750Y-40250D01*
X103500Y-33000D02*
X103500Y-35500D01*
X103500Y-33000D02*
X103500Y-32000D01*
X103500Y-32000D02*
X103400Y-31900D01*
X103400Y-31900D02*
X103400Y-30500D01*
X104500Y-38500D02*
X104500Y-40000D01*
X104750Y-40250D02*
X104750Y-42000D01*
X104500Y-40000D02*
X104750Y-40250D01*
X102500Y-33000D02*
X102500Y-35500D01*
X102500Y-33000D02*
X102500Y-32000D01*
X102500Y-32000D02*
X102300Y-31800D01*
X102300Y-31800D02*
X102300Y-30500D01*
X103500Y-38500D02*
X103500Y-40000D01*
X103750Y-40250D02*
X103750Y-42000D01*
X103500Y-40000D02*
X103750Y-40250D01*
X107500Y-33000D02*
X107500Y-35500D01*
X107750Y-31750D02*
X107750Y-30500D01*
X107500Y-32000D02*
X107750Y-31750D01*
X107500Y-33000D02*
X107500Y-32000D01*
X108500Y-38500D02*
X108500Y-40000D01*
X108750Y-40250D02*
X108750Y-42000D01*
X108500Y-40000D02*
X108750Y-40250D01*
X81500Y-44500D02*
X80000Y-44500D01*
X75006Y-35000D02*
X74500Y-35000D01*
X75506Y-35500D02*
X75006Y-35000D01*
X78000Y-35500D02*
X75506Y-35500D01*
X78500Y-35000D02*
X78000Y-35500D01*
X79500Y-35000D02*
X78500Y-35000D01*
X81500Y-43500D02*
X80000Y-43500D01*
X100750Y-40250D02*
X100750Y-42000D01*
X84500Y-52500D02*
X87500Y-52500D01*
X75000Y-34000D02*
X74500Y-34000D01*
X76000Y-35000D02*
X75000Y-34000D01*
X77750Y-35000D02*
X76000Y-35000D01*
X78500Y-34250D02*
X77750Y-35000D01*
X81500Y-34250D02*
X78500Y-34250D01*
X87500Y-40250D02*
X81500Y-34250D01*
X87500Y-41500D02*
X87500Y-40250D01*
X87500Y-50750D02*
X87500Y-47500D01*
X84500Y-51500D02*
X100250Y-51500D01*
X100250Y-51500D02*
X108750Y-43000D01*
X106500Y-33000D02*
X106500Y-35500D01*
X106650Y-31850D02*
X106650Y-30500D01*
X106500Y-32000D02*
X106650Y-31850D01*
X106500Y-33000D02*
X106500Y-32000D01*
X107500Y-38500D02*
X107500Y-40000D01*
X107750Y-40250D02*
X107750Y-42000D01*
X107500Y-40000D02*
X107750Y-40250D01*
X84500Y-43500D02*
X83500Y-43500D01*
X81000Y-36000D02*
X74500Y-36000D01*
X83000Y-38000D02*
X81000Y-36000D01*
X83000Y-43000D02*
X83000Y-38000D01*
X83500Y-43500D02*
X83000Y-43000D01*
X101750Y-42000D02*
X101750Y-40000D01*
X89000Y-42500D02*
X84500Y-42500D01*
X92000Y-39500D02*
X89000Y-42500D01*
X101250Y-39500D02*
X92000Y-39500D01*
X101750Y-40000D02*
X101250Y-39500D01*
X101200Y-30500D02*
X101000Y-30700D01*
X73500Y-31500D02*
X73500Y-32000D01*
X74000Y-31000D02*
X73500Y-31500D01*
X75000Y-31000D02*
X74000Y-31000D01*
X76000Y-32000D02*
X75000Y-31000D01*
X76006Y-32000D02*
X76000Y-32000D01*
X78500Y-32000D02*
X76006Y-32000D01*
X79000Y-32500D02*
X78500Y-32000D01*
X101000Y-32500D02*
X79000Y-32500D01*
X101000Y-30700D02*
X101000Y-32500D01*
X100150Y-30500D02*
X100150Y-31350D01*
X75000Y-32000D02*
X74500Y-32000D01*
X75650Y-32650D02*
X75000Y-32000D01*
X77650Y-32650D02*
X75650Y-32650D01*
X77993Y-32993D02*
X77650Y-32650D01*
X99743Y-32993D02*
X77993Y-32993D01*
X100000Y-33250D02*
X99743Y-32993D01*
X100150Y-31350D02*
X100000Y-31500D01*
X99050Y-30500D02*
X99000Y-30550D01*
X73000Y-33000D02*
X73500Y-33000D01*
X72500Y-32500D02*
X73000Y-33000D01*
X72500Y-31500D02*
X72500Y-32500D01*
X73500Y-30500D02*
X72500Y-31500D01*
X75500Y-30500D02*
X73500Y-30500D01*
X76500Y-31500D02*
X75500Y-30500D01*
X79000Y-31500D02*
X76500Y-31500D01*
X79493Y-31993D02*
X79000Y-31500D01*
X79500Y-31993D02*
X79493Y-31993D01*
X79500Y-32000D02*
X79500Y-31993D01*
X99000Y-32000D02*
X79500Y-32000D01*
X99000Y-30550D02*
X99000Y-32000D01*
X97950Y-30500D02*
X97950Y-31300D01*
X75000Y-33000D02*
X74500Y-33000D01*
X75500Y-33500D02*
X75000Y-33000D01*
X77000Y-33500D02*
X75500Y-33500D01*
X79000Y-30750D02*
X77000Y-30750D01*
X79750Y-31500D02*
X79000Y-30750D01*
X97750Y-31500D02*
X79750Y-31500D01*
X97950Y-31300D02*
X97750Y-31500D01*
X81500Y-46500D02*
X80000Y-46500D01*
X76500Y-44000D02*
X74500Y-44000D01*
X81500Y-45500D02*
X79250Y-45500D01*
X101500Y-44250D02*
X102750Y-43000D01*
X78500Y-40250D02*
X80500Y-40250D01*
X78500Y-44750D02*
X78500Y-40250D01*
X79250Y-45500D02*
X78500Y-44750D01*
X84500Y-54500D02*
X83000Y-54500D01*
X77000Y-43000D02*
X74500Y-43000D01*
X77500Y-43500D02*
X77000Y-43000D01*
X77500Y-44500D02*
X77500Y-43500D01*
X77000Y-45000D02*
X77500Y-44500D01*
X76500Y-45000D02*
X77000Y-45000D01*
X78000Y-50500D02*
X75000Y-47500D01*
X83000Y-50500D02*
X78000Y-50500D01*
X83000Y-54500D02*
X83000Y-50500D01*
X84500Y-53500D02*
X99250Y-53500D01*
X99250Y-53500D02*
X109750Y-43000D01*
X105500Y-33000D02*
X105500Y-35500D01*
X105500Y-33000D02*
X105500Y-32000D01*
X105500Y-32000D02*
X105550Y-31950D01*
X105550Y-31950D02*
X105550Y-30500D01*
X106500Y-38500D02*
X106500Y-40000D01*
X106750Y-40250D02*
X106750Y-42000D01*
X106500Y-40000D02*
X106750Y-40250D01*
X84500Y-45500D02*
X83000Y-45500D01*
X74500Y-46000D02*
X74500Y-45000D01*
X78000Y-49500D02*
X74500Y-46000D01*
X83000Y-49500D02*
X78000Y-49500D01*
X83000Y-45500D02*
X83000Y-49500D01*
X84500Y-44500D02*
X89500Y-44500D01*
X99250Y-45500D02*
X101750Y-43000D01*
X90500Y-45500D02*
X99250Y-45500D01*
X89500Y-44500D02*
X90500Y-45500D01*
X106120Y-29500D02*
X102620Y-26000D01*
X70000Y-37500D02*
X73500Y-41000D01*
X70000Y-30500D02*
X70000Y-37500D01*
X74500Y-26000D02*
X70000Y-30500D01*
X102620Y-26000D02*
X74500Y-26000D01*
X105020Y-29500D02*
X102020Y-26500D01*
X74500Y-40500D02*
X74500Y-41000D01*
X74000Y-40500D02*
X74500Y-40500D01*
X70500Y-37000D02*
X74000Y-40500D01*
X70500Y-31000D02*
X70500Y-37000D01*
X75000Y-26500D02*
X70500Y-31000D01*
X102020Y-26500D02*
X75000Y-26500D01*
X103940Y-29500D02*
X103940Y-29440D01*
X71000Y-42000D02*
X73500Y-42000D01*
X92500Y-27000D02*
X92000Y-27500D01*
X101500Y-27000D02*
X92500Y-27000D01*
X103940Y-29440D02*
X101500Y-27000D01*
X102860Y-29500D02*
X102860Y-29360D01*
X76500Y-42000D02*
X74500Y-42000D01*
X93000Y-27500D02*
X92000Y-28500D01*
X101000Y-27500D02*
X93000Y-27500D01*
X102860Y-29360D02*
X101000Y-27500D01*
X81500Y-48500D02*
X78500Y-48500D01*
X76500Y-53000D02*
X74500Y-53000D01*
X81500Y-47500D02*
X79500Y-47500D01*
X104500Y-43250D02*
X104750Y-43000D01*
X104500Y-44000D02*
X104500Y-43250D01*
X104000Y-44500D02*
X104500Y-44000D01*
X74500Y-52000D02*
X78000Y-52000D01*
X83500Y-56500D02*
X84500Y-56500D01*
X83000Y-57000D02*
X83500Y-56500D01*
X83000Y-59000D02*
X83000Y-57000D01*
X82000Y-59000D02*
X83000Y-59000D01*
X81500Y-59000D02*
X82000Y-59000D01*
X78000Y-55500D02*
X81500Y-59000D01*
X78000Y-52000D02*
X78000Y-55500D01*
X84500Y-55500D02*
X98250Y-55500D01*
X98250Y-55500D02*
X110750Y-43000D01*
X104500Y-33000D02*
X104500Y-35500D01*
X104500Y-33000D02*
X104500Y-30500D01*
X105500Y-38500D02*
X105500Y-40000D01*
X105750Y-40250D02*
X105750Y-42000D01*
X105500Y-40000D02*
X105750Y-40250D01*
X74500Y-54000D02*
X76500Y-54000D01*
X85500Y-47500D02*
X84500Y-47500D01*
X86000Y-48000D02*
X85500Y-47500D01*
X86000Y-50750D02*
X86000Y-48000D01*
X84500Y-46500D02*
X100250Y-46500D01*
X100250Y-46500D02*
X103750Y-43000D01*
X110380Y-29500D02*
X111380Y-28500D01*
X71000Y-50000D02*
X73500Y-50000D01*
X70500Y-50500D02*
X71000Y-50000D01*
X70500Y-53000D02*
X70500Y-50500D01*
X77500Y-60000D02*
X70500Y-53000D01*
X84500Y-60000D02*
X77500Y-60000D01*
X87000Y-57500D02*
X84500Y-60000D01*
X102500Y-57500D02*
X87000Y-57500D01*
X114000Y-46000D02*
X102500Y-57500D01*
X116500Y-46000D02*
X114000Y-46000D01*
X119500Y-43000D02*
X116500Y-46000D01*
X119500Y-32500D02*
X119500Y-43000D01*
X115000Y-28000D02*
X119500Y-32500D01*
X113500Y-28000D02*
X115000Y-28000D01*
X113000Y-28500D02*
X113500Y-28000D01*
X111380Y-28500D02*
X113000Y-28500D01*
X109380Y-29500D02*
X109380Y-29370D01*
X74500Y-49250D02*
X74500Y-50000D01*
X74250Y-49000D02*
X74500Y-49250D01*
X71250Y-49000D02*
X74250Y-49000D01*
X70000Y-50250D02*
X71250Y-49000D01*
X70000Y-53500D02*
X70000Y-50250D01*
X77000Y-60500D02*
X70000Y-53500D01*
X85000Y-60500D02*
X77000Y-60500D01*
X87500Y-58000D02*
X85000Y-60500D01*
X103000Y-58000D02*
X87500Y-58000D01*
X114506Y-46493D02*
X103000Y-58000D01*
X117006Y-46493D02*
X114506Y-46493D01*
X120000Y-43500D02*
X117006Y-46493D01*
X120000Y-32000D02*
X120000Y-43500D01*
X115250Y-27250D02*
X120000Y-32000D01*
X111500Y-27250D02*
X115250Y-27250D01*
X109380Y-29370D02*
X111500Y-27250D01*
X108280Y-29500D02*
X108280Y-29220D01*
X71500Y-51000D02*
X73500Y-51000D01*
X111000Y-26500D02*
X116000Y-26500D01*
X108280Y-29220D02*
X111000Y-26500D01*
X107200Y-29500D02*
X107200Y-29300D01*
X76500Y-51000D02*
X74500Y-51000D01*
X116500Y-25500D02*
X117000Y-26000D01*
X115500Y-25500D02*
X116500Y-25500D01*
X114993Y-26006D02*
X115500Y-25500D01*
X110493Y-26006D02*
X114993Y-26006D01*
X107200Y-29300D02*
X110493Y-26006D01*
X111500Y-40500D02*
X111500Y-41000D01*
X111750Y-41250D02*
X111750Y-42000D01*
X111500Y-41000D02*
X111750Y-41250D01*
M02*
