G04 (created by PCBNEW (22-Jun-2014 BZR 4027)-stable) date Thu 19 Nov 2015 14:46:01 GMT*
%MOIN*%
G04 Gerber Fmt 3.4, Leading zero omitted, Abs format*
%FSLAX34Y34*%
G01*
G70*
G90*
G04 APERTURE LIST*
%ADD10C,0.00590551*%
%ADD11R,0.0787402X0.0787402*%
%ADD12C,0.0787402*%
%ADD13O,0.0787402X0.0984252*%
%ADD14C,0.0984252*%
%ADD15R,0.0787402X0.0984252*%
%ADD16O,0.0984252X0.0787402*%
%ADD17R,0.0984252X0.0787402*%
%ADD18C,0.0708661*%
%ADD19C,0.0393701*%
G04 APERTURE END LIST*
G54D10*
G54D11*
X82000Y-33000D03*
G54D12*
X83000Y-33000D03*
X84000Y-33000D03*
X85000Y-33000D03*
X86000Y-33000D03*
X87000Y-33000D03*
X88000Y-33000D03*
X89000Y-33000D03*
X90000Y-33000D03*
X81000Y-34500D03*
X81000Y-40500D03*
G54D13*
X81000Y-38500D03*
X82000Y-38500D03*
X83000Y-38500D03*
X84000Y-38500D03*
X85000Y-38500D03*
X86000Y-38500D03*
X87000Y-38500D03*
X88000Y-38500D03*
X89000Y-38500D03*
X90000Y-35500D03*
X89000Y-35500D03*
X88000Y-35500D03*
X87000Y-35500D03*
X86000Y-35500D03*
X85000Y-35500D03*
X84000Y-35500D03*
X83000Y-35500D03*
X81000Y-35500D03*
G54D14*
X111484Y-29500D03*
G54D12*
X82600Y-30500D03*
X83650Y-30500D03*
X84750Y-30500D03*
X85850Y-30500D03*
X86950Y-30500D03*
X88000Y-30500D03*
X89100Y-30500D03*
X90200Y-30500D03*
X91300Y-30500D03*
X92350Y-30500D03*
X93450Y-30500D03*
X94550Y-30500D03*
X82120Y-29500D03*
X83120Y-29500D03*
X84220Y-29500D03*
X85300Y-29500D03*
X86380Y-29500D03*
X87480Y-29500D03*
X88560Y-29500D03*
X89640Y-29500D03*
X90760Y-29500D03*
X91820Y-29500D03*
X92900Y-29500D03*
X94000Y-29500D03*
G54D15*
X104500Y-35401D03*
G54D13*
X104500Y-36598D03*
X103500Y-35401D03*
X103500Y-36598D03*
X102500Y-35401D03*
X102500Y-36598D03*
G54D16*
X119098Y-32000D03*
X117901Y-32000D03*
X117901Y-33000D03*
X119098Y-33000D03*
G54D17*
X119098Y-36000D03*
G54D16*
X117901Y-36000D03*
X119098Y-35000D03*
X117901Y-35000D03*
X119098Y-34000D03*
X117901Y-34000D03*
X119098Y-41000D03*
X117901Y-41000D03*
X117901Y-42000D03*
X119098Y-42000D03*
G54D17*
X119098Y-45000D03*
G54D16*
X117901Y-45000D03*
X119098Y-44000D03*
X117901Y-44000D03*
X119098Y-43000D03*
X117901Y-43000D03*
X119098Y-50000D03*
X117901Y-50000D03*
X117901Y-51000D03*
X119098Y-51000D03*
G54D17*
X119098Y-54000D03*
G54D16*
X117901Y-54000D03*
X119098Y-53000D03*
X117901Y-53000D03*
X119098Y-52000D03*
X117901Y-52000D03*
G54D17*
X108000Y-42500D03*
G54D16*
X108000Y-43500D03*
X108000Y-44500D03*
X108000Y-45500D03*
X108000Y-46500D03*
X108000Y-47500D03*
X111000Y-48500D03*
X111000Y-47500D03*
X111000Y-46500D03*
X111000Y-45500D03*
X111000Y-44500D03*
X111000Y-43500D03*
X111000Y-42500D03*
G54D17*
X108000Y-51500D03*
G54D16*
X108000Y-52500D03*
X108000Y-53500D03*
X108000Y-54500D03*
X108000Y-55500D03*
X108000Y-56500D03*
X111000Y-57500D03*
X111000Y-56500D03*
X111000Y-55500D03*
X111000Y-54500D03*
X111000Y-53500D03*
X111000Y-52500D03*
X111000Y-51500D03*
G54D12*
X77750Y-42000D03*
X77750Y-43000D03*
X78750Y-42000D03*
X78750Y-43000D03*
X79750Y-42000D03*
X79750Y-43000D03*
X80750Y-42000D03*
X80750Y-43000D03*
X81750Y-42000D03*
X81750Y-43000D03*
X82750Y-42000D03*
X82750Y-43000D03*
X83750Y-42000D03*
X83750Y-43000D03*
X84750Y-42000D03*
X84750Y-43000D03*
X85750Y-42000D03*
G54D18*
X85750Y-43000D03*
G54D12*
X86750Y-42000D03*
G54D18*
X86750Y-43000D03*
G54D12*
X87750Y-42000D03*
X87750Y-43000D03*
X88750Y-42000D03*
X88750Y-43000D03*
X89750Y-42000D03*
X89750Y-43000D03*
X90750Y-42000D03*
X90750Y-43000D03*
X91750Y-42000D03*
X91750Y-43000D03*
X92750Y-42000D03*
X92750Y-43000D03*
X93750Y-42000D03*
X93750Y-43000D03*
X94750Y-42000D03*
X94750Y-43000D03*
X95750Y-42000D03*
X95750Y-43000D03*
X96750Y-42000D03*
X96750Y-43000D03*
G54D11*
X76750Y-61000D03*
G54D12*
X76750Y-62000D03*
X77750Y-61000D03*
X77750Y-62000D03*
X78750Y-61000D03*
X78750Y-62000D03*
X79750Y-61000D03*
X79750Y-62000D03*
X80750Y-61000D03*
X80750Y-62000D03*
X81750Y-61000D03*
X81750Y-62000D03*
X82750Y-61000D03*
X82750Y-62000D03*
X83750Y-61000D03*
X83750Y-62000D03*
X84750Y-61000D03*
X84750Y-62000D03*
X85750Y-61000D03*
X85750Y-62000D03*
X86750Y-61000D03*
X86750Y-62000D03*
X87750Y-61000D03*
X87750Y-62000D03*
X88750Y-61000D03*
X88750Y-62000D03*
X89750Y-61000D03*
X89750Y-62000D03*
X90750Y-61000D03*
X90750Y-62000D03*
X91750Y-61000D03*
X91750Y-62000D03*
X92750Y-61000D03*
X92750Y-62000D03*
X93750Y-61000D03*
X93750Y-62000D03*
X94750Y-61000D03*
X94750Y-62000D03*
X95750Y-61000D03*
X95750Y-62000D03*
X96750Y-61000D03*
X96750Y-62000D03*
X97750Y-61000D03*
X97750Y-62000D03*
X98750Y-61000D03*
X98750Y-62000D03*
X112000Y-42500D03*
X112000Y-51500D03*
X111000Y-37750D03*
X107500Y-30500D03*
X107500Y-36500D03*
X81000Y-33000D03*
X79000Y-39500D03*
X79000Y-44000D03*
X119000Y-55000D03*
X113000Y-51500D03*
X83000Y-34500D03*
X98000Y-34500D03*
X113000Y-35000D03*
X112500Y-44500D03*
X91750Y-40250D03*
X112500Y-43500D03*
X105000Y-41500D03*
X105000Y-47500D03*
X105000Y-50750D03*
X105000Y-52500D03*
X92500Y-33250D03*
X92500Y-31500D03*
X115500Y-33500D03*
X115500Y-30750D03*
X116000Y-44000D03*
X112500Y-46500D03*
X91000Y-44250D03*
X112000Y-40250D03*
X116000Y-45000D03*
X117500Y-47500D03*
X121500Y-42000D03*
X100500Y-27500D03*
X116000Y-42000D03*
X100500Y-28500D03*
X116000Y-53000D03*
X114000Y-48500D03*
X88500Y-44500D03*
X113000Y-47500D03*
X106500Y-50750D03*
X116000Y-54000D03*
X121000Y-51000D03*
X76500Y-26500D03*
X116000Y-51000D03*
X75500Y-26000D03*
G54D19*
X109750Y-36500D02*
X107500Y-36500D01*
X111000Y-37750D02*
X109750Y-36500D01*
X107500Y-30500D02*
X107500Y-36500D01*
X80000Y-33000D02*
X81000Y-33000D01*
X79000Y-34000D02*
X80000Y-33000D01*
X79000Y-39500D02*
X79000Y-34000D01*
X113000Y-55000D02*
X113000Y-59000D01*
X79000Y-45500D02*
X79000Y-44000D01*
X90000Y-56500D02*
X79000Y-45500D01*
X105500Y-56500D02*
X90000Y-56500D01*
X108000Y-59000D02*
X105500Y-56500D01*
X113000Y-59000D02*
X108000Y-59000D01*
X119000Y-55000D02*
X113000Y-55000D01*
X113000Y-55000D02*
X113000Y-51500D01*
X98000Y-34500D02*
X83000Y-34500D01*
X113000Y-36000D02*
X113000Y-35000D01*
X114000Y-37000D02*
X113000Y-36000D01*
X114000Y-44500D02*
X114000Y-37000D01*
X112500Y-44500D02*
X114000Y-44500D01*
X92500Y-39500D02*
X91750Y-40250D01*
X113000Y-39500D02*
X92500Y-39500D01*
X113000Y-43000D02*
X113000Y-39500D01*
X112500Y-43500D02*
X113000Y-43000D01*
X105000Y-47500D02*
X105000Y-41500D01*
X105000Y-52500D02*
X105000Y-50750D01*
X92500Y-31500D02*
X92500Y-33250D01*
X115500Y-30750D02*
X115500Y-33500D01*
X113500Y-46500D02*
X116000Y-44000D01*
X112500Y-46500D02*
X113500Y-46500D01*
X91000Y-44500D02*
X91000Y-44250D01*
X92500Y-46000D02*
X91000Y-44500D01*
X103250Y-46000D02*
X92500Y-46000D01*
X103250Y-40250D02*
X103250Y-46000D01*
X112000Y-40250D02*
X103250Y-40250D01*
X117500Y-46500D02*
X116000Y-45000D01*
X117500Y-47500D02*
X117500Y-46500D01*
X122500Y-41000D02*
X121500Y-42000D01*
X122500Y-40500D02*
X122500Y-41000D01*
X122500Y-37500D02*
X122500Y-40500D01*
X122500Y-30500D02*
X122500Y-37500D01*
X118000Y-26000D02*
X122500Y-30500D01*
X102000Y-26000D02*
X118000Y-26000D01*
X100500Y-27500D02*
X102000Y-26000D01*
X116000Y-40000D02*
X116000Y-42000D01*
X122000Y-40000D02*
X116000Y-40000D01*
X122000Y-37000D02*
X122000Y-40000D01*
X122000Y-31000D02*
X122000Y-37000D01*
X117500Y-26500D02*
X122000Y-31000D01*
X103000Y-26500D02*
X117500Y-26500D01*
X101000Y-28500D02*
X103000Y-26500D01*
X100500Y-28500D02*
X101000Y-28500D01*
X115000Y-52000D02*
X116000Y-53000D01*
X115000Y-49500D02*
X115000Y-52000D01*
X114000Y-48500D02*
X115000Y-49500D01*
X94000Y-50000D02*
X88500Y-44500D01*
X113000Y-50000D02*
X94000Y-50000D01*
X113000Y-47500D02*
X113000Y-50000D01*
X107250Y-50750D02*
X106500Y-50750D01*
X107500Y-50500D02*
X107250Y-50750D01*
X114000Y-50500D02*
X107500Y-50500D01*
X114000Y-53000D02*
X114000Y-50500D01*
X115000Y-54000D02*
X114000Y-53000D01*
X116000Y-54000D02*
X115000Y-54000D01*
X121000Y-54000D02*
X121000Y-51000D01*
X115000Y-60000D02*
X121000Y-54000D01*
X108000Y-60000D02*
X115000Y-60000D01*
X105500Y-57500D02*
X108000Y-60000D01*
X90000Y-57500D02*
X105500Y-57500D01*
X78500Y-46000D02*
X90000Y-57500D01*
X76000Y-46000D02*
X78500Y-46000D01*
X73000Y-43000D02*
X76000Y-46000D01*
X73000Y-32500D02*
X73000Y-43000D01*
X76500Y-29000D02*
X73000Y-32500D01*
X76500Y-26500D02*
X76500Y-29000D01*
X116000Y-50000D02*
X116000Y-51000D01*
X117000Y-49000D02*
X116000Y-50000D01*
X121000Y-49000D02*
X117000Y-49000D01*
X122000Y-50000D02*
X121000Y-49000D01*
X122000Y-54000D02*
X122000Y-50000D01*
X115500Y-60500D02*
X122000Y-54000D01*
X107500Y-60500D02*
X115500Y-60500D01*
X105000Y-58000D02*
X107500Y-60500D01*
X89493Y-58000D02*
X105000Y-58000D01*
X77993Y-46500D02*
X89493Y-58000D01*
X75500Y-46500D02*
X77993Y-46500D01*
X72500Y-43500D02*
X75500Y-46500D01*
X72500Y-32000D02*
X72500Y-43500D01*
X75500Y-29000D02*
X72500Y-32000D01*
X75500Y-26000D02*
X75500Y-29000D01*
M02*
