M48
;DRILL file {Pcbnew (22-Jun-2014 BZR 4027)-stable} date Thu 19 Nov 2015 14:36:07 GMT
;FORMAT={-:-/ absolute / inch / decimal}
FMAT,2
INCH,TZ
T1C0.032
T2C0.039
T3C0.040
T4C0.043
T5C0.051
T6C0.120
%
G90
G05
M72
T1
X8.9Y-3.55
X10.8Y-4.25
X10.8Y-4.35
X10.8Y-4.45
X10.8Y-4.55
X10.8Y-4.65
X10.8Y-4.75
X10.8Y-4.85
X10.8Y-5.15
X10.8Y-5.25
X10.8Y-5.35
X10.8Y-5.45
X10.8Y-5.55
X10.8Y-5.65
X10.8Y-5.75
X11.1Y-4.25
X11.1Y-4.35
X11.1Y-4.45
X11.1Y-4.55
X11.1Y-4.65
X11.1Y-4.75
X11.1Y-4.85
X11.1Y-5.15
X11.1Y-5.25
X11.1Y-5.35
X11.1Y-5.45
X11.1Y-5.55
X11.1Y-5.65
X11.1Y-5.75
T2
X7.55Y-2.6
X7.65Y-2.65
X7.675Y-4.2
X7.675Y-4.3
X7.675Y-6.1
X7.675Y-6.2
X7.775Y-4.2
X7.775Y-4.3
X7.775Y-6.1
X7.775Y-6.2
X7.875Y-4.2
X7.875Y-4.3
X7.875Y-6.1
X7.875Y-6.2
X7.9Y-3.95
X7.9Y-4.4
X7.975Y-4.2
X7.975Y-4.3
X7.975Y-6.1
X7.975Y-6.2
X8.Y-4.05
X8.075Y-4.2
X8.075Y-4.3
X8.075Y-6.1
X8.075Y-6.2
X8.1Y-3.3
X8.1Y-3.45
X8.1Y-3.55
X8.1Y-3.85
X8.1Y-4.05
X8.175Y-4.2
X8.175Y-4.3
X8.175Y-6.1
X8.175Y-6.2
X8.2Y-3.3
X8.2Y-3.45
X8.2Y-3.55
X8.2Y-3.85
X8.275Y-4.2
X8.275Y-4.3
X8.275Y-6.1
X8.275Y-6.2
X8.3Y-3.3
X8.3Y-3.45
X8.3Y-3.55
X8.3Y-3.85
X8.375Y-4.2
X8.375Y-4.3
X8.375Y-6.1
X8.375Y-6.2
X8.4Y-3.3
X8.4Y-3.55
X8.4Y-3.85
X8.475Y-4.2
X8.475Y-4.3
X8.475Y-6.1
X8.475Y-6.2
X8.5Y-3.3
X8.5Y-3.55
X8.5Y-3.85
X8.575Y-4.2
X8.575Y-6.1
X8.575Y-6.2
X8.6Y-3.3
X8.6Y-3.55
X8.6Y-3.85
X8.675Y-4.2
X8.675Y-6.1
X8.675Y-6.2
X8.7Y-3.3
X8.7Y-3.55
X8.7Y-3.85
X8.775Y-4.2
X8.775Y-4.3
X8.775Y-6.1
X8.775Y-6.2
X8.8Y-3.3
X8.8Y-3.55
X8.8Y-3.85
X8.85Y-4.45
X8.875Y-4.2
X8.875Y-4.3
X8.875Y-6.1
X8.875Y-6.2
X8.9Y-3.3
X8.9Y-3.85
X8.975Y-4.2
X8.975Y-4.3
X8.975Y-6.1
X8.975Y-6.2
X9.Y-3.3
X9.Y-3.55
X9.Y-3.85
X9.075Y-4.2
X9.075Y-4.3
X9.075Y-6.1
X9.075Y-6.2
X9.1Y-4.425
X9.175Y-4.025
X9.175Y-4.2
X9.175Y-4.3
X9.175Y-6.1
X9.175Y-6.2
X9.25Y-3.15
X9.25Y-3.325
X9.275Y-4.2
X9.275Y-4.3
X9.275Y-6.1
X9.275Y-6.2
X9.375Y-4.2
X9.375Y-4.3
X9.375Y-6.1
X9.375Y-6.2
X9.475Y-4.2
X9.475Y-4.3
X9.475Y-6.1
X9.475Y-6.2
X9.575Y-4.2
X9.575Y-4.3
X9.575Y-6.1
X9.575Y-6.2
X9.675Y-4.2
X9.675Y-4.3
X9.675Y-6.1
X9.675Y-6.2
X9.775Y-4.2
X9.775Y-4.3
X9.775Y-6.1
X9.775Y-6.2
X9.8Y-3.45
X9.875Y-4.2
X9.875Y-4.3
X9.875Y-6.1
X9.875Y-6.2
X10.05Y-2.75
X10.05Y-2.85
X10.25Y-3.55
X10.25Y-3.65
X10.35Y-3.55
X10.35Y-3.65
X10.45Y-3.55
X10.45Y-3.65
X10.5Y-4.15
X10.5Y-4.75
X10.5Y-5.075
X10.5Y-5.25
X10.65Y-5.075
X10.75Y-3.05
X10.75Y-3.65
X11.1Y-3.775
X11.2Y-4.025
X11.2Y-4.15
X11.2Y-4.25
X11.2Y-5.15
X11.2Y-5.25
X11.25Y-4.35
X11.25Y-4.45
X11.25Y-4.65
X11.3Y-3.5
X11.3Y-4.75
X11.3Y-5.15
X11.4Y-4.85
X11.55Y-3.075
X11.55Y-3.35
X11.6Y-4.2
X11.6Y-4.4
X11.6Y-4.5
X11.6Y-5.1
X11.6Y-5.3
X11.6Y-5.4
X11.75Y-4.75
X11.8Y-3.2
X11.8Y-3.3
X11.8Y-3.4
X11.8Y-3.5
X11.8Y-3.6
X11.8Y-4.1
X11.8Y-4.2
X11.8Y-4.3
X11.8Y-4.4
X11.8Y-4.5
X11.8Y-5.
X11.8Y-5.1
X11.8Y-5.2
X11.8Y-5.3
X11.8Y-5.4
X11.9Y-3.2
X11.9Y-3.3
X11.9Y-3.4
X11.9Y-3.5
X11.9Y-3.6
X11.9Y-4.1
X11.9Y-4.2
X11.9Y-4.3
X11.9Y-4.4
X11.9Y-4.5
X11.9Y-5.
X11.9Y-5.1
X11.9Y-5.2
X11.9Y-5.3
X11.9Y-5.4
X11.9Y-5.5
X12.1Y-5.1
X12.15Y-4.2
T3
X8.15Y-3.05
X8.212Y-2.95
X8.26Y-3.05
X8.312Y-2.95
X8.365Y-3.05
X8.422Y-2.95
X8.475Y-3.05
X8.53Y-2.95
X8.585Y-3.05
X8.638Y-2.95
X8.695Y-3.05
X8.748Y-2.95
X8.8Y-3.05
X8.856Y-2.95
X8.91Y-3.05
X8.964Y-2.95
X9.02Y-3.05
X9.076Y-2.95
X9.13Y-3.05
X9.182Y-2.95
X9.235Y-3.05
X9.29Y-2.95
X9.345Y-3.05
X9.4Y-2.95
X9.455Y-3.05
T4
X8.575Y-4.3
X8.675Y-4.3
T5
X10.9516Y-2.95
X11.1484Y-2.95
T6
X7.05Y-2.65
X7.05Y-6.15
X7.875Y-2.95
X9.725Y-2.95
X12.2Y-2.65
X12.2Y-6.15
T0
M30
