M48
;DRILL file {Pcbnew (22-Jun-2014 BZR 4027)-stable} date Mon 16 Nov 2015 10:40:39 GMT
;FORMAT={-:-/ absolute / inch / decimal}
FMAT,2
INCH,TZ
T1C0.039
T2C0.059
T3C0.118
%
G90
G05
M72
T1
X8.925Y-6.325
X8.925Y-6.625
X9.125Y-6.425
X9.125Y-6.525
X9.125Y-6.625
X9.225Y-6.425
X9.225Y-6.525
X9.225Y-6.625
T2
X7.7329Y-7.125
X7.7557Y-6.3274
X7.7557Y-6.6226
X7.8266Y-5.925
X7.9297Y-7.125
X7.9541Y-6.3274
X7.9541Y-6.6226
X8.0234Y-5.925
X8.1266Y-7.125
X8.1526Y-6.3274
X8.1526Y-6.6226
X8.3234Y-7.125
X8.5203Y-7.125
X8.7171Y-7.125
X8.7533Y-6.3274
X8.7533Y-6.6226
X9.175Y-5.8766
X9.175Y-6.0734
T3
X7.575Y-5.625
X7.575Y-7.375
X9.475Y-5.625
X9.475Y-7.375
T0
M30
