G04 (created by PCBNEW (22-Jun-2014 BZR 4027)-stable) date Mon 16 Nov 2015 12:18:49 GMT*
%MOIN*%
G04 Gerber Fmt 3.4, Leading zero omitted, Abs format*
%FSLAX34Y34*%
G01*
G70*
G90*
G04 APERTURE LIST*
%ADD10C,0.00590551*%
%ADD11R,0.0984252X0.0787402*%
%ADD12O,0.0984252X0.0787402*%
%ADD13C,0.1181*%
%ADD14C,0.0984252*%
%ADD15R,0.0787402X0.0787402*%
%ADD16C,0.0787402*%
%ADD17C,0.0393701*%
%ADD18C,0.0787402*%
G04 APERTURE END LIST*
G54D10*
G54D11*
X92348Y-64250D03*
G54D12*
X91151Y-64250D03*
X92348Y-65250D03*
X91151Y-65250D03*
X92348Y-66250D03*
X91151Y-66250D03*
G54D13*
X87533Y-66226D03*
X81526Y-66226D03*
X79541Y-66226D03*
X77557Y-66226D03*
X77557Y-63274D03*
X79541Y-63274D03*
X81526Y-63274D03*
X87533Y-63274D03*
G54D14*
X79297Y-71250D03*
X83234Y-71250D03*
X87171Y-71250D03*
X91750Y-58765D03*
X78265Y-59250D03*
G54D15*
X89250Y-63250D03*
G54D16*
X89250Y-66250D03*
G54D17*
X89250Y-66250D02*
X87557Y-66250D01*
X87557Y-66250D02*
X87533Y-66226D01*
X91250Y-65250D02*
X90250Y-65250D01*
X90250Y-65250D02*
X89250Y-66250D01*
X89250Y-63250D02*
X87557Y-63250D01*
X87557Y-63250D02*
X87533Y-63274D01*
X91250Y-64250D02*
X90250Y-64250D01*
X90250Y-64250D02*
X89250Y-63250D01*
G54D18*
X83234Y-69750D02*
X85671Y-69750D01*
X85671Y-69750D02*
X87171Y-71250D01*
X83234Y-69750D02*
X80797Y-69750D01*
X80797Y-69750D02*
X79297Y-71250D01*
X79541Y-66226D02*
X79726Y-66226D01*
X83234Y-69734D02*
X83234Y-69750D01*
X83234Y-69750D02*
X83234Y-71250D01*
X79726Y-66226D02*
X83234Y-69734D01*
X79541Y-63274D02*
X79541Y-66226D01*
X77557Y-63274D02*
X77557Y-59958D01*
X77557Y-59958D02*
X78265Y-59250D01*
X77557Y-63274D02*
X77557Y-66226D01*
X78265Y-59250D02*
X78265Y-59234D01*
X78265Y-59234D02*
X79750Y-57750D01*
X79750Y-57750D02*
X80750Y-57750D01*
X80750Y-57750D02*
X81765Y-58765D01*
X81765Y-58765D02*
X91750Y-58765D01*
M02*
