M48
;DRILL file {Pcbnew (2013-jul-07)-stable} date Mon 30 Nov 2015 14:48:34 GMT
;FORMAT={-:-/ absolute / inch / decimal}
FMAT,2
INCH,TZ
T1C0.039
T2C0.040
T3C0.051
T4C0.120
%
G90
G05
M72
T1
X7.95Y-5.275
X8.125Y-6.125
X8.15Y-6.65
X9.5Y-5.425
X9.5Y-5.625
X9.55Y-6.65
X9.6Y-4.9
X9.6Y-5.625
X9.7Y-4.995
X9.7Y-5.105
X9.7Y-5.215
X9.7Y-5.32
X9.7Y-5.43
X9.7Y-5.54
X9.7Y-5.65
X9.7Y-5.755
X9.7Y-5.865
X9.7Y-6.085
X9.7Y-6.19
X9.7Y-6.3
X9.8Y-5.05
X9.8Y-5.16
X9.8Y-5.268
X9.8Y-5.374
X9.8Y-5.486
X9.8Y-5.594
X9.8Y-5.702
X9.8Y-5.812
X9.8Y-5.92
X9.8Y-6.028
X9.8Y-6.138
X9.8Y-6.238
T2
X9.7Y-5.975
T3
X8.1344Y-5.825
X8.1344Y-6.4
X8.1594Y-4.7
X8.3313Y-5.825
X8.3313Y-6.4
X8.3563Y-4.7
X8.3579Y-5.225
X8.5281Y-5.825
X8.5281Y-6.4
X8.5531Y-4.7
X8.5547Y-5.225
X8.725Y-5.825
X8.725Y-6.4
X8.75Y-4.7
X8.7516Y-5.225
X8.9219Y-5.825
X8.9219Y-6.4
X8.9469Y-4.7
X8.9484Y-5.225
X9.1187Y-5.825
X9.1187Y-6.4
X9.1437Y-4.7
X9.1453Y-5.225
X9.3156Y-5.825
X9.3156Y-6.4
X9.3406Y-4.7
X9.3421Y-5.225
T4
X7.875Y-4.425
X7.875Y-6.875
X9.8Y-4.725
X9.8Y-6.575
X10.125Y-4.425
X10.125Y-6.875
T0
M30
