G04 (created by PCBNEW (2013-jul-07)-stable) date Mon 30 Nov 2015 14:48:13 GMT*
%MOIN*%
G04 Gerber Fmt 3.4, Leading zero omitted, Abs format*
%FSLAX34Y34*%
G01*
G70*
G90*
G04 APERTURE LIST*
%ADD10C,0.00590551*%
%ADD11C,0.0984252*%
%ADD12C,0.0787402*%
%ADD13C,0.06*%
%ADD14C,0.0393701*%
G04 APERTURE END LIST*
G54D10*
G54D11*
X91452Y-52250D03*
X87515Y-52250D03*
X83578Y-52250D03*
X93155Y-64000D03*
X91187Y-64000D03*
X89218Y-64000D03*
X87250Y-64000D03*
X85281Y-64000D03*
X81344Y-64000D03*
X93155Y-58250D03*
X91187Y-58250D03*
X89218Y-58250D03*
X87250Y-58250D03*
X85281Y-58250D03*
X81344Y-58250D03*
X93405Y-47000D03*
X91437Y-47000D03*
X89468Y-47000D03*
X87500Y-47000D03*
X85531Y-47000D03*
X81594Y-47000D03*
G54D12*
X97000Y-63000D03*
X97000Y-61900D03*
X97000Y-60850D03*
G54D13*
X97000Y-59750D03*
G54D12*
X97000Y-58650D03*
X97000Y-57550D03*
X97000Y-56500D03*
X97000Y-55400D03*
X97000Y-54300D03*
X97000Y-53200D03*
X97000Y-52150D03*
X97000Y-51050D03*
X98000Y-62380D03*
X98000Y-61380D03*
X98000Y-60280D03*
X98000Y-59200D03*
X98000Y-58120D03*
X98000Y-57020D03*
X98000Y-55940D03*
X98000Y-54860D03*
X98000Y-53740D03*
X98000Y-52680D03*
X98000Y-51600D03*
X98000Y-50500D03*
X79500Y-52750D03*
X81250Y-61250D03*
X81500Y-66500D03*
X95500Y-66500D03*
X95000Y-56250D03*
X95000Y-54250D03*
X96000Y-49000D03*
X96000Y-56250D03*
G54D14*
X81344Y-58250D02*
X81344Y-61155D01*
X81344Y-61155D02*
X81250Y-61250D01*
X81344Y-64000D02*
X81344Y-61344D01*
X81594Y-50655D02*
X81594Y-47000D01*
X79500Y-52750D02*
X81594Y-50655D01*
X81344Y-61344D02*
X81250Y-61250D01*
X98000Y-62380D02*
X98000Y-64000D01*
X81344Y-66344D02*
X81344Y-64000D01*
X81500Y-66500D02*
X81344Y-66344D01*
X98000Y-64000D02*
X95500Y-66500D01*
X97000Y-51050D02*
X94550Y-51050D01*
X85328Y-50500D02*
X83578Y-52250D01*
X94000Y-50500D02*
X85328Y-50500D01*
X94550Y-51050D02*
X94000Y-50500D01*
X97000Y-52150D02*
X94900Y-52150D01*
X88765Y-51000D02*
X87515Y-52250D01*
X93750Y-51000D02*
X88765Y-51000D01*
X94900Y-52150D02*
X93750Y-51000D01*
X97000Y-53200D02*
X92402Y-53200D01*
X92402Y-53200D02*
X91452Y-52250D01*
X97000Y-54300D02*
X95050Y-54300D01*
X93155Y-61594D02*
X93155Y-64000D01*
X94750Y-60000D02*
X93155Y-61594D01*
X94750Y-56500D02*
X94750Y-60000D01*
X95000Y-56250D02*
X94750Y-56500D01*
X95050Y-54300D02*
X95000Y-54250D01*
X97000Y-59750D02*
X96750Y-59750D01*
X92437Y-65250D02*
X91187Y-64000D01*
X93500Y-65250D02*
X92437Y-65250D01*
X94500Y-64250D02*
X93500Y-65250D01*
X94500Y-62000D02*
X94500Y-64250D01*
X96750Y-59750D02*
X94500Y-62000D01*
X97000Y-60850D02*
X96400Y-60850D01*
X90968Y-65750D02*
X89218Y-64000D01*
X93750Y-65750D02*
X90968Y-65750D01*
X95000Y-64500D02*
X93750Y-65750D01*
X95000Y-62250D02*
X95000Y-64500D01*
X96400Y-60850D02*
X95000Y-62250D01*
X97000Y-61900D02*
X96100Y-61900D01*
X89500Y-66250D02*
X87250Y-64000D01*
X94000Y-66250D02*
X89500Y-66250D01*
X95500Y-64750D02*
X94000Y-66250D01*
X95500Y-62500D02*
X95500Y-64750D01*
X96100Y-61900D02*
X95500Y-62500D01*
X97000Y-63000D02*
X96743Y-63000D01*
X88031Y-66750D02*
X85281Y-64000D01*
X94198Y-66750D02*
X88031Y-66750D01*
X96000Y-64948D02*
X94198Y-66750D01*
X96000Y-63743D02*
X96000Y-64948D01*
X96743Y-63000D02*
X96000Y-63743D01*
X97000Y-55400D02*
X93850Y-55400D01*
X93155Y-56094D02*
X93155Y-58250D01*
X93850Y-55400D02*
X93155Y-56094D01*
X100750Y-66750D02*
X100750Y-66948D01*
X98110Y-54860D02*
X100750Y-57500D01*
X100750Y-57500D02*
X100750Y-66750D01*
X98000Y-54860D02*
X98110Y-54860D01*
X87937Y-55000D02*
X91187Y-58250D01*
X80750Y-55000D02*
X87937Y-55000D01*
X78500Y-57250D02*
X80750Y-55000D01*
X78500Y-67000D02*
X78500Y-57250D01*
X80250Y-68750D02*
X78500Y-67000D01*
X98948Y-68750D02*
X80250Y-68750D01*
X100750Y-66948D02*
X98948Y-68750D01*
X98000Y-55940D02*
X98190Y-55940D01*
X89218Y-58218D02*
X89218Y-58250D01*
X86500Y-55500D02*
X89218Y-58218D01*
X85250Y-55500D02*
X86500Y-55500D01*
X81000Y-55500D02*
X85250Y-55500D01*
X79000Y-57500D02*
X81000Y-55500D01*
X79000Y-57750D02*
X79000Y-57500D01*
X79000Y-57756D02*
X79000Y-57750D01*
X79000Y-66750D02*
X79000Y-57756D01*
X80500Y-68250D02*
X79000Y-66750D01*
X98750Y-68250D02*
X80500Y-68250D01*
X100250Y-66750D02*
X98750Y-68250D01*
X100250Y-58000D02*
X100250Y-66750D01*
X98190Y-55940D02*
X100250Y-58000D01*
X86250Y-67750D02*
X80750Y-67750D01*
X99750Y-66500D02*
X98500Y-67750D01*
X98500Y-67750D02*
X86250Y-67750D01*
X98000Y-57020D02*
X98020Y-57020D01*
X99750Y-58750D02*
X99750Y-66000D01*
X98020Y-57020D02*
X99750Y-58750D01*
X99750Y-66000D02*
X99750Y-66500D01*
X85000Y-56000D02*
X87250Y-58250D01*
X83500Y-56000D02*
X85000Y-56000D01*
X81250Y-56000D02*
X83500Y-56000D01*
X79500Y-57750D02*
X81250Y-56000D01*
X79500Y-66500D02*
X79500Y-57750D01*
X80750Y-67750D02*
X79500Y-66500D01*
X80000Y-63750D02*
X80000Y-58000D01*
X98120Y-58120D02*
X99250Y-59250D01*
X99250Y-59250D02*
X99250Y-66250D01*
X99250Y-66250D02*
X98250Y-67250D01*
X98250Y-67250D02*
X81000Y-67250D01*
X81000Y-67250D02*
X80000Y-66250D01*
X80000Y-66250D02*
X80000Y-63750D01*
X98000Y-58120D02*
X98120Y-58120D01*
X83531Y-56500D02*
X85281Y-58250D01*
X81500Y-56500D02*
X83531Y-56500D01*
X80000Y-58000D02*
X81500Y-56500D01*
X97000Y-56500D02*
X96250Y-56500D01*
X94000Y-47000D02*
X93405Y-47000D01*
X96000Y-49000D02*
X94000Y-47000D01*
X96250Y-56500D02*
X96000Y-56250D01*
X98000Y-50500D02*
X98250Y-50500D01*
X92937Y-45500D02*
X91437Y-47000D01*
X98000Y-45500D02*
X92937Y-45500D01*
X99250Y-46750D02*
X98000Y-45500D01*
X99250Y-49500D02*
X99250Y-46750D01*
X98250Y-50500D02*
X99250Y-49500D01*
X98000Y-51600D02*
X98000Y-51500D01*
X91468Y-45000D02*
X89468Y-47000D01*
X98250Y-45000D02*
X91468Y-45000D01*
X99743Y-46493D02*
X98250Y-45000D01*
X99743Y-49756D02*
X99743Y-46493D01*
X98000Y-51500D02*
X99743Y-49756D01*
X98000Y-52680D02*
X98000Y-52500D01*
X90000Y-44500D02*
X87500Y-47000D01*
X98500Y-44500D02*
X90000Y-44500D01*
X100250Y-46250D02*
X98500Y-44500D01*
X100250Y-50250D02*
X100250Y-46250D01*
X98000Y-52500D02*
X100250Y-50250D01*
X98000Y-53740D02*
X98010Y-53740D01*
X88531Y-44000D02*
X85531Y-47000D01*
X98750Y-44000D02*
X88531Y-44000D01*
X100750Y-46000D02*
X98750Y-44000D01*
X100750Y-51000D02*
X100750Y-46000D01*
X98010Y-53740D02*
X100750Y-51000D01*
M02*
